<svg id="Layer_1" xmlns="http://www.w3.org/2000/svg" xmlns:xlink="http://www.w3.org/1999/xlink" viewBox="0 0 1154 328"><style>.st0{clip-path:url(#SVGID_2_);fill:none}.st1{clip-path:url(#SVGID_4_);fill:#fff}.st2{clip-path:url(#SVGID_6_)}.st3{fill:#fff}.st4,.st5{clip-path:url(#SVGID_8_);fill:#fff}.st5{clip-path:url(#SVGID_10_)}</style><g id="Original"><defs><path id="SVGID_1_" d="M-128-161h1440v648H-128z"/></defs><clipPath id="SVGID_2_"><use xlink:href="#SVGID_1_" overflow="visible"/></clipPath><circle class="st0" cx="164.6" cy="164" r="162.9"/><defs><path id="SVGID_3_" d="M-128-161h1440v648H-128z"/></defs><clipPath id="SVGID_4_"><use xlink:href="#SVGID_3_" overflow="visible"/></clipPath><path class="st1" d="M131 323.6C57.2 308.1 1.7 242.7 1.7 164.2c0-17.5 2.8-34.4 7.9-50.2H95c21.7 0 32.6 9.6 32.6 28.9 0 28.1-23.2 46-69.5 54v22.2L131 323.6z"/><defs><path id="SVGID_5_" d="M-128-161h1440v648H-128z"/></defs><clipPath id="SVGID_6_"><use xlink:href="#SVGID_5_" overflow="visible"/></clipPath><g class="st2"><path class="st3" d="M243.1 146.5c-15.8 0-24.5 8.5-25.8 25.6H268v-.9c.1-16.5-8.3-24.7-24.9-24.7z"/><path class="st3" d="M164.5 1.4c-55.4 0-104.3 27.7-133.7 69.9h67.4c53.4 0 80.2 23.4 80.2 70.2 0 31.6-20.8 57.7-62.4 78.5l76.7 104.6c76.6-13.3 134.8-80 134.8-160.4-.2-89.9-73.1-162.8-163-162.8zM254.2 218c12 0 24-1.2 36-3.4v23.8c-10.5 2.3-23.3 3.4-38.2 3.4-43.1 0-64.6-20.2-64.6-60.8 0-38.7 18.6-58.1 55.8-58.1 36.1 0 54.1 18.4 54.1 55.2 0 4.9-.3 9.8-1 14.7h-78.9c-.1 16.8 12.2 25.2 36.8 25.2z"/></g><g><defs><path id="SVGID_7_" d="M-128-161h1440v648H-128z"/></defs><clipPath id="SVGID_8_"><use xlink:href="#SVGID_7_" overflow="visible"/></clipPath><path class="st4" d="M1151.9 234.6c-18.2 4.8-36 7.1-53.3 7.1-38.4 0-57.6-20.6-57.6-61.8 0-38 18.8-57 56.4-57 8 0 16.2 1.9 24.6 5.6V79.9h30l-.1 154.7zm-30-80.6c-6.2-4.1-14-6.1-23.3-6.1-18.6 0-28 10.5-28 31.4 0 24.8 9.7 37.2 29.1 37.2 7.8 0 15.3-1.1 22.2-3.3V154zm-177.7 18.1h50.7v-.9c0-16.5-8.3-24.7-24.9-24.7-15.8 0-24.5 8.5-25.8 25.6zM970 123c36.1 0 54.1 18.4 54.1 55.2 0 4.9-.3 9.8-1 14.7h-78.9c0 16.8 12.3 25.1 36.9 25.1 12 0 24-1.2 36-3.4v23.8c-10.5 2.3-23.3 3.4-38.2 3.4-43.1 0-64.6-20.2-64.6-60.8-.1-38.7 18.5-58 55.7-58zM842.9 241.8V123h23.2l3.7 15.1c10.4-10.1 21.4-15.1 33-15.1v24.2c-11.2 0-21.2 4.6-30 13.9v80.7h-29.9zM814.6 123v118.8h-23.4l-3.6-15.2c-13.7 10.1-28.2 15.2-43.5 15.2-24.3 0-36.5-14.4-36.5-43.1V123h30v74.9c0 13.1 5.7 19.7 17.2 19.7 9.7 0 19.7-3.9 29.7-11.7V123h30.1zM591.7 236.1v-24.9c13.2 5.3 28.5 7.9 45.7 7.9 12.9 0 19.4-4.1 19.4-12.4 0-7.9-4.4-11.9-13-11.9h-21.5c-24.1 0-36.2-11.9-36.2-35.7 0-24.9 17.6-37.3 52.8-37.3 15 0 29 2.2 42.2 6.8v24.9c-13.2-5.3-27.5-7.9-43-7.9-16.2 0-24.3 4.1-24.3 12.4 0 7.9 4.7 11.9 14.1 11.9h19.2c26.4 0 39.6 11.9 39.6 35.6 0 24.9-16.8 37.4-50.5 37.4-16.5 0-31.3-2.2-44.5-6.8zm-116 0v-24.9c13.2 5.3 28.5 7.9 45.7 7.9 12.9 0 19.4-4.1 19.4-12.4 0-7.9-4.4-11.9-13-11.9h-21.5c-24.1 0-36.2-11.9-36.2-35.7 0-24.9 17.6-37.3 52.8-37.3 14.9 0 29 2.2 42.2 6.8v24.9c-13.2-5.3-27.5-7.9-43-7.9-16.2 0-24.3 4.1-24.3 12.4 0 7.9 4.7 11.9 14.1 11.9h19.2c26.4 0 39.6 11.9 39.6 35.6 0 24.9-16.8 37.4-50.5 37.4-16.5 0-31.3-2.2-44.5-6.8zM417.4 192c-7.6-1.5-15.6-2.3-24.2-2.3-14.4 0-21.6 4.9-21.6 14.7 0 10.6 6 15.8 18.1 15.8 10 0 19.2-3.1 27.7-9.3V192zm-75.8 12.8c0-23.6 17.2-35.4 51.6-35.4 8.1 0 16.1.8 24.2 2.3v-9c0-10.6-7.7-16-23-16-13 0-27.4 1.9-43.2 5.6v-23.8c15.8-3.7 30.2-5.6 43.2-5.6 35.3 0 53 13.1 53 39.1v79.7H430l-10.7-10.6c-10.3 7.1-21.7 10.6-34.1 10.6-29.1.1-43.6-12.2-43.6-36.9z"/></g><g><defs><path id="SVGID_9_" d="M-128-161h1440v648H-128z"/></defs><clipPath id="SVGID_10_"><use xlink:href="#SVGID_9_" overflow="visible"/></clipPath><path class="st5" d="M328.2 309.3c150.4-49.3 485.3-81.8 824.7-15.9l-20.5 33.5c-234.9-43.9-523.3-56.6-804.2-17.6"/></g></g></svg>