<svg xmlns="http://www.w3.org/2000/svg" xmlns:xlink="http://www.w3.org/1999/xlink" width="155" height="61"><defs><path id="a" d="M.131.839H10.58v18.396H.13z"/></defs><g fill="none" fill-rule="evenodd"><path fill="#6D5560" d="M50.654 1.079V5.72h7.815v21.64h5.312V5.721h7.858V1.08zM73.61.86h5.312v9.811h.176c.966-1.314 2.635-2.19 5.18-2.19 4.479 0 7.333 3.198 7.333 8.191v10.644h-5.27V17.153c0-2.277-1.448-4.073-3.687-4.073-2.282 0-3.6 1.796-3.732 3.505v10.774h-5.311V.86zm25.004 15.155h7.376c-.22-2.234-1.449-3.548-3.6-3.548-1.932 0-3.337 1.139-3.776 3.548zm11.59 9.636s-2.24 2.234-6.936 2.234c-6.191 0-9.878-4.161-9.878-9.724 0-5.52 3.687-9.636 9.131-9.636 5.4 0 8.605 3.635 8.605 9.154 0 .526-.044 1.446-.044 1.446h-12.6c.308 3.153 2.195 4.599 5.137 4.599 2.898 0 4.741-1.534 4.741-1.534l1.844 3.461zM68.106 48.547H56.604v6.527h13.653v4.643H51.292V33.436h18.965v4.643H56.604v6.176h11.502zm9.524 1.796l-5.883-9.023h5.927l3.337 5.782h.13l3.337-5.782h5.883l-6.19 9.023 6.41 9.374h-5.927l-3.512-6.22h-.131l-3.6 6.22h-5.883z"/><path d="M95.559 48.372h7.375c-.22-2.234-1.449-3.547-3.6-3.547-1.931 0-3.336 1.138-3.775 3.547zm11.59 9.636s-2.24 2.234-6.937 2.234c-6.19 0-9.877-4.16-9.877-9.724 0-5.518 3.687-9.636 9.13-9.636 5.4 0 8.606 3.635 8.606 9.154 0 .526-.044 1.446-.044 1.446h-12.6c.308 3.153 2.195 4.6 5.137 4.6 2.897 0 4.741-1.534 4.741-1.534l1.844 3.46zm5.268-16.688v-5.607h5.267v5.607h4.523v4.073h-4.523v8.235c0 1.271.615 2.015 1.976 2.015 1.053 0 1.976-.613 1.976-.613l1.492 3.636c-.79.57-2.634 1.488-4.74 1.488-4.26 0-5.971-2.67-5.971-6.35v-8.41h-3.205V41.32h3.205zm16.593 7.052h7.375c-.218-2.234-1.448-3.547-3.6-3.547-1.93 0-3.335 1.138-3.774 3.547zm11.59 9.636s-2.238 2.234-6.936 2.234c-6.19 0-9.878-4.16-9.878-9.724 0-5.518 3.688-9.636 9.132-9.636 5.4 0 8.605 3.635 8.605 9.154 0 .526-.044 1.446-.044 1.446h-12.6c.307 3.153 2.195 4.6 5.136 4.6 2.898 0 4.742-1.534 4.742-1.534l1.843 3.46z" fill="#6D5560"/><g transform="translate(143.806 40.482)"><mask id="b" fill="#fff"><use xlink:href="#a"/></mask><path d="M10.58 5.263h-.966c-2.459 0-4.215 1.708-4.215 4.467v9.505H.131V.839h3.292l.748 2.716h.262C5.4 1.758 7.155.839 9.57.839h1.01v4.424z" fill="#6D5560" mask="url(#b)"/></g><path fill="#FFD600" d="M42.137 9.268V.859H0v58.858h42.137V51.31H8.427V9.268z"/><path fill="#FFD600" d="M33.717 30.388l-16.84-9.809V40.2z"/></g></svg>