<svg xmlns="http://www.w3.org/2000/svg" viewBox="0 0 846.9 347.4"><path d="M97.3 144.2V2H1.2v233.2h234.1v-91zm514.7 0h234.1v91H612zM612 2h234.1v91H612zm-57 78.3c8.9-8.9 13.3-20.5 13.5-32.2 0-11.9-5.7-25.6-14.8-34.5C543.8 3.7 529.4-.8 516.2.3c-10.4.8-20.5 5.5-28.4 13.5l-86.1 91-86.8-91.4C307.3 5.8 297.5 1.3 287.6.3c-13.5-1.5-28.6 3.2-38.7 13.5-9.3 9.5-15 23.9-14.6 36.2.4 11.2 4.9 22.4 13.5 30.9l153.9 159.6L555 80.3z" fill="#afd04b"/><path d="M39.6 332.7v13.8H0v-56.4h17.3v42.6h22.3zm23.1-42.6v56.4H45.4v-56.4h17.3zm58.5 0l-17.5 56.4H86.1l-18.3-56.4H86l8.9 30.8c.6 1.8 1.1 3.6 1.6 5.4l10.4-36.1h14.3zm47.5 42.9v13.5h-42.5v-56.4h42.5v13h-25.5v8.2h20.6v12.5h-20.6v9.2h25.5zm56.9 13.5h-19.2l-8.2-21.6h-5.5v21.6h-17.3v-56.4h29.5c6.5 0 11.6 1.5 15.1 4.6 3.6 3 5.4 7.1 5.4 12 0 3.3-.7 6.1-2 8.6s-4 4.7-8 6.6l10.2 24.6zm-32.9-33.6h7.4c2.2 0 3.9-.5 5.2-1.4 1.3-.9 2-2.2 2-4 0-3.6-2.2-5.4-6.7-5.4h-8v10.8zm58.5 13.1v20.5h-17.6v-56.4h24.1c6 0 10.6.7 13.7 2.1 3.1 1.4 5.6 3.5 7.4 6.3 1.8 2.8 2.7 6 2.7 9.5 0 5.4-1.9 9.7-5.6 13-3.7 3.3-8.7 5-15 5h-9.7zm-.2-12.1h5.8c5.1 0 7.6-1.9 7.6-5.6 0-3.5-2.4-5.3-7.1-5.3H251v10.9zm61.3 33.5c-7.9 0-14.4-2.6-19.4-7.9-5-5.3-7.5-12.3-7.5-21.1 0-8.4 2.4-15.4 7.2-20.9 4.8-5.5 11.4-8.2 19.9-8.2 7.9 0 14.3 2.6 19.2 7.8 4.9 5.2 7.4 12.1 7.4 20.8 0 9-2.5 16.1-7.5 21.5-5 5.3-11.4 8-19.3 8zm-.1-12.8c2.9 0 5-1.3 6.3-3.8s1.9-7.2 1.9-14c0-9.8-2.6-14.7-7.9-14.7-5.7 0-8.5 5.6-8.5 16.8 0 10.4 2.8 15.7 8.2 15.7zm58.4 12.8c-7.9 0-14.4-2.6-19.4-7.9-5-5.3-7.5-12.3-7.5-21.1 0-8.4 2.4-15.4 7.2-20.9 4.8-5.5 11.4-8.2 19.9-8.2 7.9 0 14.3 2.6 19.2 7.8 4.9 5.2 7.4 12.1 7.4 20.8 0 9-2.5 16.1-7.5 21.5-5 5.3-11.4 8-19.3 8zm-.1-12.8c2.9 0 5-1.3 6.3-3.8s1.9-7.2 1.9-14c0-9.8-2.6-14.7-7.9-14.7-5.7 0-8.5 5.6-8.5 16.8.1 10.4 2.8 15.7 8.2 15.7zm73.6-1.9v13.8h-39.6v-56.4h17.3v42.6h22.3zm81.6-42.6l-17.5 56.4h-17.7l-18.3-56.4h18.3l8.9 30.8c.6 1.8 1.1 3.6 1.6 5.4l10.4-36.1h14.3zm23 0v56.4h-17.3v-56.4h17.3zM590 325l15.8 1c-.7 6.9-3.3 12.2-7.7 15.9-4.4 3.7-9.7 5.5-16.1 5.5-7.7 0-13.8-2.5-18.6-7.6-4.7-5.1-7.1-12.1-7.1-21 0-8.8 2.2-16 6.7-21.4 4.5-5.4 10.7-8.1 18.7-8.1 7.5 0 13.2 2.1 17.2 6.2s6.3 9.6 6.8 16.5l-16.2.9c0-3.8-.7-6.5-2.2-8.2-1.4-1.7-3.1-2.5-5.1-2.5-5.5 0-8.2 5.5-8.2 16.5 0 6.1.7 10.3 2.1 12.5 1.4 2.2 3.4 3.3 6 3.3 4.8-.2 7.3-3.3 7.9-9.5zm45.7-21.4v42.9h-16.4v-42.9h-11.7v-13.5h39.8v13.5h-11.7zm41.5 43.8c-7.9 0-14.4-2.6-19.4-7.9-5-5.3-7.5-12.3-7.5-21.1 0-8.4 2.4-15.4 7.2-20.9 4.8-5.5 11.4-8.2 19.9-8.2 7.9 0 14.3 2.6 19.2 7.8 4.9 5.2 7.4 12.1 7.4 20.8 0 9-2.5 16.1-7.5 21.5-5 5.3-11.5 8-19.3 8zm-.1-12.8c2.9 0 5-1.3 6.3-3.8s1.9-7.2 1.9-14c0-9.8-2.6-14.7-7.9-14.7-5.7 0-8.5 5.6-8.5 16.8 0 10.4 2.7 15.7 8.2 15.7zm84.8 11.9h-19.2l-8.2-21.6H729v21.6h-17.3v-56.4h29.5c6.5 0 11.6 1.5 15.1 4.6 3.6 3 5.4 7.1 5.4 12 0 3.3-.7 6.1-2 8.6s-4 4.7-8 6.6l10.2 24.6zM729 312.9h7.4c2.2 0 3.9-.5 5.2-1.4 1.3-.9 2-2.2 2-4 0-3.6-2.2-5.4-6.7-5.4h-8v10.8zm58.8-22.8v56.4h-17.3v-56.4h17.3zm41.4 56.4l-3.2-11.1h-15.1l-3.4 11.1h-14.1l17.4-56.4h18.3l17.7 56.4h-17.6zm-15.4-23.4h9.1l-4.6-16.4-4.5 16.4z" fill="#004356"/></svg>