<svg xmlns="http://www.w3.org/2000/svg" viewBox="0 0 84.29 51.67"><path d="M39 0a14.18 14.18 0 00-11.27 22.77L39.51 7.29h-2.53a19.33 19.33 0 00-3.51.27 3.8 3.8 0 00-1.44.59 5.63 5.63 0 00-1.45 1.72l-.19.37-.69-.15 1.16-4.45h14.76L33.89 21.31a14.86 14.86 0 011.68-.07c.48 0 1.2 0 2.17.08l2.05.12c.75 0 1.39.07 1.87.07a8.12 8.12 0 002.47-.3 5.7 5.7 0 001.51-.73 6.85 6.85 0 002.1-2.4c.05-.09.13-.23.22-.42l.62.16a9 9 0 01-.62 1.77 7.2 7.2 0 01-2.32 3.07 5.65 5.65 0 01-3.43 1.13h-.2a25.3 25.3 0 01-4.06-.43 29.91 29.91 0 00-4.77-.49 14.6 14.6 0 00-2.31.18 7.36 7.36 0 00-2.35.71A14.18 14.18 0 1039 0z" fill="#039"/><path d="M9.89 49.35a14.87 14.87 0 01-2.1.19H4.6l8.19-11.7H2.15L.84 40.69a8.46 8.46 0 011-.46 10.28 10.28 0 011.95-.53 12.68 12.68 0 011.9-.17h2.64L0 51.24h11.73l1.35-3.06a9 9 0 01-1 .52 9.42 9.42 0 01-2.19.65zm37.89-9a4.47 4.47 0 01.15-1.51 2.6 2.6 0 01.19-.42 1.84 1.84 0 01.51-.55h-4.35a2.12 2.12 0 01.5.52 1.61 1.61 0 01.21.44 4.61 4.61 0 01.14 1.41v8.81a3.73 3.73 0 01-.22 1.29 1.47 1.47 0 01-.21.39 3.31 3.31 0 01-.42.48h4.3a1.88 1.88 0 01-.42-.48 2.63 2.63 0 01-.21-.41 3.69 3.69 0 01-.16-1.15v-8.85zm13 9a6 6 0 01-2.36.5 4.63 4.63 0 01-3.49-1.44 5.34 5.34 0 01-1.36-3.71 5.52 5.52 0 011.22-3.68 4.29 4.29 0 011.23-1 5.38 5.38 0 012.62-.64 6.46 6.46 0 012.43.48 4.19 4.19 0 011.12.61v-2.51a6.7 6.7 0 00-.83-.22 10.86 10.86 0 00-2.38-.24 9.85 9.85 0 00-3.87.71 7.64 7.64 0 00-1.86 1.09 6.82 6.82 0 00-2.58 5.48 6.5 6.5 0 002.48 5.26 8 8 0 005.06 1.55 12.6 12.6 0 003.81-.6l.22-.07v-2.43c-.33.21-.44.28-.64.39a7.12 7.12 0 01-.81.41zm16-9a5.09 5.09 0 01.15-1.42 1.77 1.77 0 01.21-.49 1.88 1.88 0 01.54-.56h-4.45a1.89 1.89 0 01.49.54 2.26 2.26 0 01.23.47 4.61 4.61 0 01.14 1.35v3.26h-6.08v-4.02a2.3 2.3 0 01.11-.58 2.92 2.92 0 01.56-.92l.15-.14h-4.3a3.3 3.3 0 01.45.51 2.38 2.38 0 01.23.45 3.78 3.78 0 01.15 1.44v8.18a11.61 11.61 0 010 1.41 2.08 2.08 0 01-.14.53 1.89 1.89 0 01-.52.75l-.15.14h4.24a2.52 2.52 0 01-.36-.45 2.07 2.07 0 01-.22-.42 3 3 0 01-.2-1.16v-4.07h6.08v3.27a9.2 9.2 0 01-.06 1.36 2 2 0 01-.14.57 2 2 0 01-.49.71l-.19.17h4.33a3.12 3.12 0 01-.36-.42 1.64 1.64 0 01-.25-.44 2.7 2.7 0 01-.14-1.21v-8.85zm-34.64 10c-.47-.45-.9-.88-1.53-1.56-.4-.42-.73-.79-1-1.09l-2.12-2.46c.26-.08.36-.12.6-.21a5.72 5.72 0 001.67-1 3.22 3.22 0 001.23-2.55 3.11 3.11 0 00-.91-2.2 4.57 4.57 0 00-2.2-1.21 11.57 11.57 0 00-2.32-.23h-4.77a2.27 2.27 0 01.46.5 1.83 1.83 0 01.23.49 4.67 4.67 0 01.15 1.41v8.8a3.59 3.59 0 01-.16 1.29 1.64 1.64 0 01-.24.43 3 3 0 01-.44.48h4.3a3.75 3.75 0 01-.37-.44 1.66 1.66 0 01-.23-.41 3.2 3.2 0 01-.18-1.23v-3.68l2.52 3 .56.65c.29.32.51.56.66.71a5.87 5.87 0 001.4 1.1 2.8 2.8 0 001.34.3h2.4l-.49-.41zm-5.2-6.61a4.72 4.72 0 01-1.71.54 5.07 5.07 0 01-.7.06h-.23v-5h.36a7.23 7.23 0 011.83.22 2.49 2.49 0 01.91.48 2.07 2.07 0 01.7 1.65 2.25 2.25 0 01-.52 1.55 2.76 2.76 0 01-.64.5zm-12.15-5.38a1.51 1.51 0 01.2.45 5 5 0 01.12 1.4v5.1a15.66 15.66 0 01-.11 2.27 2.94 2.94 0 01-.35 1 2.71 2.71 0 01-1.67 1.15 4.16 4.16 0 01-1 .1 3.17 3.17 0 01-2.65-1.13 3.92 3.92 0 01-.49-2.46v-6.65a3.1 3.1 0 01.1-.61 2.93 2.93 0 01.55-1l.11-.12h-4.39a1.71 1.71 0 01.49.54 1.6 1.6 0 01.19.47 2.15 2.15 0 01.09.61v5.45c0 1.42 0 1.78.06 2.35a4.31 4.31 0 00.95 2.47 5.89 5.89 0 004.8 1.92 8.33 8.33 0 002.72-.43 5.13 5.13 0 002-1.33 4.4 4.4 0 001.1-2.6c.06-.61.09-1.34.09-2.39v-4.76a4.8 4.8 0 01.09-1.22 1.75 1.75 0 01.24-.54 1.72 1.72 0 01.53-.56h-4.3a1.69 1.69 0 01.53.52zm57.47-3.85a.61.61 0 00.58-.6c0-.49-.3-.7-.77-.7h-.68v2.65h.26v-1.25h.14a.5.5 0 01.58.35l.38.89h.29l-.45-1a.48.48 0 00-.37-.34zm-.61-.13v-.94h.26c.36 0 .67 0 .67.46s-.35.48-.66.48zm.51-2a2.17 2.17 0 102.17 2.16 2.17 2.17 0 00-2.21-2.18zm0 4.09a1.93 1.93 0 111.92-1.93 1.92 1.92 0 01-1.96 1.91z" fill="#006"/></svg>